<?xml version="1.0" encoding="UTF-8" standalone="no"?>
<!-- Generator: Adobe Illustrator 23.0.3, SVG Export Plug-In . SVG Version: 6.00 Build 0)  -->

<svg
   version="1.1"
   id="Layer_1"
   x="0px"
   y="0px"
   viewBox="0 0 1170 840"
   xml:space="preserve"
   sodipodi:docname="mercado-livre.svg"
   width="1170"
   height="840"
   inkscape:version="1.2.1 (9c6d41e, 2022-07-14)"
   xmlns:inkscape="http://www.inkscape.org/namespaces/inkscape"
   xmlns:sodipodi="http://sodipodi.sourceforge.net/DTD/sodipodi-0.dtd"
   xmlns="http://www.w3.org/2000/svg"
   xmlns:svg="http://www.w3.org/2000/svg"><defs
   id="defs3391" /><sodipodi:namedview
   id="namedview3389"
   pagecolor="#ffffff"
   bordercolor="#000000"
   borderopacity="0.25"
   inkscape:showpageshadow="2"
   inkscape:pageopacity="0"
   inkscape:pagecheckerboard="0"
   inkscape:deskcolor="#d1d1d1"
   showgrid="false"
   inkscape:zoom="0.28459451"
   inkscape:cx="915.33739"
   inkscape:cy="574.50159"
   inkscape:window-width="1440"
   inkscape:window-height="781"
   inkscape:window-x="0"
   inkscape:window-y="25"
   inkscape:window-maximized="1"
   inkscape:current-layer="Layer_1" />
<style
   type="text/css"
   id="style3374">
	.st0{fill:#2D3473;}
	.st1{fill:#FFFFFF;}
	.st2{fill:#F4D147;}
	.st3{fill:#26337E;}
</style>
<g
   id="g3386"
   transform="translate(-330.29099,3.3500607)">
	<g
   id="g3382">
		<path
   class="st0"
   d="m 504.7,142.3 c -17.4,-18.7 -13.4,-47.1 15.4,-50 -7.8,-21.2 -5.7,-31.8 12.7,-46.2 17.6,-13.8 36.1,-26.6 55.1,-38.3 19.4,-12 31.4,-10 47.8,5.5 15.6,14.7 30.9,29.8 46,44.9 3.2,3.2 5.8,4.1 10.3,2.8 105.7,-28.5 213.2,-35.8 321.8,-23.3 39.3,4.5 78,13.8 116.9,21.3 5,1 8,0.2 11.6,-3.3 15.6,-15.4 31.5,-30.5 47.2,-45.9 9.7,-9.5 21,-11.5 33.3,-6.9 5.9,2.2 11.8,5.1 17.1,8.6 14,9.2 27.7,18.8 41.5,28.3 3.8,2.7 7.4,5.7 10.8,8.9 15.2,14.5 17.3,24.3 9.3,43.4 26.6,8.1 33.4,24.4 18.7,46.4 8,5.5 16.1,10.9 24,16.5 50.4,36 93.2,78.9 122.4,134.2 17.4,32.9 27.9,68.1 30.4,105.1 7.7,114.8 -30.7,211.7 -116.2,288.9 -65.6,59.1 -143.3,96 -227.7,119.6 -54.6,15.2 -110.2,24 -166.7,27.9 -95,6.5 -189.2,1 -282,-21.2 -71,-17 -138.2,-43.4 -199.2,-84.2 C 439.3,681.1 386.2,625.5 356.7,550.6 329.2,480.8 325,408.9 345.4,336.7 c 15.2,-54 46.8,-98.8 87.5,-136.6 21.4,-19.9 45.5,-36.9 68.4,-55.2 1.1,-0.9 2.3,-1.7 3.4,-2.6 z m 713.7,-34.4 c 7.7,1.9 15.5,4.3 23.4,5.4 4,0.6 9.5,0.3 12.2,-2.1 9.5,-8.1 18.9,-16.5 26.9,-26.1 8.1,-9.8 7.9,-13.5 -2.5,-21.4 -18.6,-14.1 -37.9,-27.3 -57.5,-39.9 -9.1,-5.9 -12.1,-4.7 -20.1,3.2 -19.6,19.1 -38.9,38.4 -58.6,57.5 -36.1,35 -66.3,74.2 -86.8,120.4 -27.6,62.4 -54.9,124.9 -82.3,187.4 -11.4,25.9 -23.1,51.7 -33.7,78 -7.9,19.6 -14.3,39.9 -14,61.6 0.3,21.3 10.4,36.9 30.7,42.9 12.6,3.7 26,5.5 39.2,6.5 63.9,5.3 127.7,11.4 192,7.7 53.5,-3.1 106.6,-8.8 158.9,-20.6 8.3,-1.9 17.1,-3.2 25.6,-2.8 13.7,0.5 24.1,7.6 30.4,20.5 1.4,-1.3 2.2,-1.9 2.8,-2.7 23.4,-26.5 41.9,-55.9 54.7,-88.9 9.9,-25.6 12.1,-52.7 15.9,-79.5 0.7,-5 -2.3,-5.5 -6.1,-6.1 -43.6,-6.3 -87.1,-4.4 -130.5,1.5 -74.4,10.2 -146,30.5 -215.7,58.3 -13.6,5.4 -27,11.3 -40.9,17.2 0.1,-1.4 -0.1,-2.2 0.2,-2.8 14.9,-31 17.4,-64.5 18.5,-98 0.8,-24.1 -0.3,-48.3 -1,-72.4 -1,-36.3 7.3,-70.9 19.4,-104.7 4,-11.1 8.3,-22.2 13.5,-32.7 5.3,-10.7 13.8,-15.4 24,-13 18.9,4.5 36.4,-0.1 53,-8 23.4,-11.2 47.9,-17.7 73.3,-21.7 6.7,-1 13.4,-3.2 19.4,-6.4 2.5,-1.3 3.4,-6.5 3.7,-10.1 0.1,-0.8 -5.5,-3.5 -8,-3 -12.9,2.9 -26.3,5 -38.2,10.3 -9.8,4.4 -18.2,6.6 -27.9,1.6 -1.7,-0.9 -3.7,-1.3 -5.5,-2.1 -9.6,-4.1 -17.5,-2.1 -24.4,5.9 -5,5.8 -10.4,11.3 -16.3,16 -7.3,5.9 -14.2,6 -21.5,1.2 2.4,-2 4.8,-3.8 6.9,-5.8 12.5,-12.9 25.1,-25.7 37.3,-38.9 6,-6.5 6.7,-14 1.8,-21.7 -2,-3.1 -3.6,-6.4 -5.3,-9.7 0.6,-0.5 1.1,-1 1.7,-1.4 6.4,5.1 12.8,10.3 20.7,16.6 3.9,-7.4 7.6,-14.4 11.6,-22 0.5,5.3 1.3,10.4 1.3,15.4 0,7.2 5.5,7.1 9.4,7.5 -2.8,3.6 -5.4,7.1 -8.2,10.8 -14.8,-9 -19.6,-7.2 -23.4,11.1 z M 423.1,579.7 c 11,-11.4 19.5,-15.1 34.4,-14.2 6.6,0.4 13.2,1.7 19.6,3.2 60.4,13.4 121.6,21.1 183.3,21 51.7,-0.1 103.4,-4.3 155,-7.4 16.4,-1 33,-3 48.8,-7.1 21,-5.3 31.4,-21 31.8,-42.7 0.4,-19.4 -4.4,-37.8 -11.4,-55.4 -11.5,-28.8 -24.2,-57.1 -36.5,-85.6 -23.9,-55.1 -47.8,-110.3 -72,-165.3 -15.4,-35 -31.6,-70.1 -57.6,-98.6 -32,-35.1 -66.2,-68.2 -99.3,-102.3 -4.9,-5 -10.2,-5.4 -16.1,-2.6 -3.5,1.7 -7.1,3.5 -10.4,5.7 -12.3,8.2 -24.6,16.4 -36.6,25 -6.2,4.4 -11.8,9.6 -17.4,14.8 -4.1,3.8 -4.8,8.6 -0.9,13.2 6.6,7.6 12.8,15.6 20.1,22.5 13,12.2 29.8,12.9 45.2,2.8 -3.7,-16.4 -6.5,-17.5 -22.9,-10.5 -3.4,-3.8 -6.4,-7.1 -9.3,-10.4 7.8,1.4 10.2,-2.9 10.1,-10.1 0,-4 0.8,-8.1 1.2,-12 3.9,7 7.8,14 11.7,20.9 8,-6.2 14.3,-11.1 20.6,-16 0.5,0.5 1,1.1 1.5,1.6 -0.9,1.7 -1.6,3.4 -2.6,5 -8.1,13.2 -8.2,18 2.1,29.6 10.2,11.4 21.2,22 32,32.8 3,3 6.7,5.4 11.2,9 -9.5,4.1 -16.1,3.4 -21.7,-0.8 -6,-4.6 -11.6,-9.9 -16.8,-15.4 -10.4,-10.9 -13.5,-12.6 -27.1,-6.6 -12.7,5.7 -23.3,3.9 -35.6,-2.1 -10.7,-5.2 -23.5,-6.3 -35.5,-8.6 -2.2,-0.4 -6.9,1.8 -7.1,3.3 -0.4,2.9 0.8,6.8 2.7,9.1 1.8,2.3 5.3,3.6 8.3,4.4 5,1.4 10.1,2.3 15.2,3.1 22.9,3.7 45.2,9.3 66.3,19.4 18.2,8.8 37,14.5 57.9,9.7 9.8,-2.3 17.5,2.8 22.1,11.3 4.3,8 7.7,16.5 10.9,25 13.9,36.4 24,73.5 22.9,113 -0.7,24.6 -1.6,49.3 -0.9,73.9 0.9,33.1 3.7,66 18.1,96.7 0.5,1 0.5,2.2 1,4.2 -2.1,-0.8 -3.5,-1.1 -4.7,-1.7 -71.3,-33.8 -145.9,-57 -223.6,-69.9 -48.6,-8.1 -97.5,-10.6 -146.6,-3.8 -5.6,0.8 -7.2,2.8 -7.3,8.4 -1.1,34.8 9.4,66.6 24,97.4 11.1,22.8 25.1,43.5 41.9,63.1 z m 488.1,-17.8 c -3.7,5.1 -6.6,10 -10.3,14.1 -13.5,14.8 -31.2,21.7 -50.5,23.4 -46.6,4 -93.3,7.2 -140.1,10.3 -37.7,2.5 -75.4,1 -113,-2.7 -45.1,-4.4 -90.1,-9.8 -134.4,-20.2 -5.4,-1.3 -11.9,-0.6 -17.3,1 -6.7,1.9 -7.8,8.2 -2.8,12.5 20.4,17.4 40,36 61.8,51.5 47.7,34 100.9,57.3 156.5,75.6 70.8,23.2 143.5,35.3 217.7,38.3 77.7,3.1 154.6,-3.3 230.5,-21.2 66.9,-15.8 130.5,-39.7 189.8,-74.7 30.2,-17.8 58.2,-38.8 83.6,-63.1 3.5,-3.3 4.1,-5.7 1.7,-10 -5.3,-9.7 -11.3,-12.9 -24.1,-10 -62.3,13.8 -125.3,21.7 -189,23.7 -66.2,2 -132,-4.1 -197.8,-10.5 -26.2,-2.8 -49.2,-12.4 -62.3,-38 z M 704.1,80.1 c 3.1,3.3 5,5.5 7,7.5 28.4,28 51.2,60.3 67.6,96.3 39,85.6 76.5,171.9 114.4,258 6.7,15.2 11.9,31 17.8,46.5 0.3,-0.2 0.9,-0.4 1,-0.8 10.5,-26.3 20.3,-52.8 31.5,-78.8 27.8,-64.7 56.1,-129.2 84.5,-193.7 17.3,-39.4 37.8,-77 66.2,-109.7 7.9,-9 16.3,-17.6 25.2,-27.4 C 980.4,45.4 843,45.8 704.1,80.1 Z m 769.4,307.7 c 0,-0.9 0.1,-1.9 0,-2.8 -4.2,-36 -16,-69.5 -34.7,-100.5 -34,-56.4 -81.9,-98.4 -137.7,-132.3 -1.5,-0.9 -3.8,-1.4 -5.5,-1.1 -25.1,3.8 -49.7,9.1 -73.1,19.8 -21,9.6 -42.5,17.4 -66.4,11.6 -1.6,-0.4 -4.8,2 -5.8,3.9 -3,5.9 -5.3,12.2 -7.7,18.4 -14.9,38.5 -24,77.6 -21.5,119.6 1.9,30.6 -0.6,61.5 -1.7,92.3 -0.4,10.6 -2.5,21.2 -3.8,32.1 1.5,-0.3 2.2,-0.3 2.9,-0.5 48.2,-19 97.6,-34.1 148.1,-45.7 47.5,-10.9 95.5,-17.8 144.2,-17.9 20.8,0 41.4,2 62.7,3.1 z m -767.7,60.6 c 0.1,-1.2 0.2,-1.9 0.1,-2.6 -7.3,-41.8 -8.1,-84 -5.4,-126.1 3,-47.3 -11.2,-90.5 -28.8,-133.1 -1.3,-3.3 -3,-5.1 -7.2,-4 -14.8,3.8 -29.4,1.7 -43.6,-3.2 -21.3,-7.4 -42.4,-15.8 -64,-22.5 -10.2,-3.2 -21.4,-8.1 -32,-1.5 -41.5,25.8 -78.8,56.7 -109.2,95.2 -30.2,38.3 -50.2,81.1 -57.2,129.7 -0.5,3.5 -0.4,7 -0.6,10.6 122.2,-15.9 235.6,14.9 347.9,57.5 z"
   id="path3376" />
		<path
   class="st1"
   d="m 1218.4,107.9 c 3.8,-18.3 8.6,-20.1 23.5,-11.2 2.8,-3.7 5.4,-7.1 8.2,-10.8 -3.9,-0.4 -9.3,-0.3 -9.4,-7.5 0,-5 -0.8,-10.1 -1.3,-15.4 -4,7.6 -7.7,14.6 -11.6,22 -7.9,-6.3 -14.3,-11.5 -20.7,-16.6 -0.6,0.5 -1.1,1 -1.7,1.4 1.8,3.2 3.4,6.6 5.3,9.7 4.9,7.8 4.2,15.3 -1.8,21.7 -12.2,13.2 -24.8,26 -37.3,38.9 -2,2.1 -4.5,3.8 -6.9,5.8 7.3,4.8 14.2,4.7 21.5,-1.2 5.9,-4.8 11.3,-10.3 16.3,-16 6.9,-8 14.8,-10 24.4,-5.9 1.8,0.8 3.8,1.2 5.5,2.1 9.7,5.1 18.1,2.8 27.9,-1.6 11.9,-5.3 25.3,-7.5 38.2,-10.3 2.5,-0.5 8.1,2.1 8,3 -0.3,3.5 -1.2,8.7 -3.7,10.1 -5.9,3.2 -12.7,5.4 -19.4,6.4 -25.4,4 -50,10.5 -73.3,21.7 -16.6,7.9 -34.1,12.5 -53,8 -10.3,-2.4 -18.8,2.3 -24,13 -5.2,10.6 -9.6,21.6 -13.5,32.7 -12.1,33.8 -20.4,68.4 -19.4,104.7 0.7,24.1 1.8,48.3 1,72.4 -1.1,33.5 -3.6,67 -18.5,98 -0.3,0.6 -0.1,1.4 -0.2,2.8 13.9,-5.9 27.3,-11.8 40.9,-17.2 69.6,-27.7 141.3,-48.1 215.7,-58.3 43.4,-5.9 86.9,-7.8 130.5,-1.5 3.8,0.5 6.8,1.1 6.1,6.1 -3.8,26.8 -6,53.9 -15.9,79.5 -12.8,33 -31.4,62.4 -54.7,88.9 -0.6,0.7 -1.4,1.3 -2.8,2.7 -6.3,-12.9 -16.7,-20 -30.4,-20.5 -8.5,-0.3 -17.2,0.9 -25.6,2.8 -52.3,11.9 -105.5,17.6 -158.9,20.6 -64.2,3.7 -128.1,-2.5 -192,-7.7 -13.2,-1.1 -26.6,-2.8 -39.2,-6.5 -20.4,-6 -30.4,-21.6 -30.7,-42.9 -0.3,-21.7 6,-41.9 14,-61.6 10.6,-26.3 22.4,-52.1 33.7,-78 27.4,-62.5 54.7,-125 82.3,-187.4 20.4,-46.2 50.6,-85.5 86.8,-120.4 19.7,-19 39,-38.4 58.6,-57.5 8.1,-7.9 11,-9 20.1,-3.2 19.6,12.7 39,25.8 57.5,39.9 10.4,7.9 10.6,11.6 2.5,21.4 -7.9,9.6 -17.3,18 -26.9,26.1 -2.7,2.3 -8.2,2.6 -12.2,2.1 -8,-1 -15.7,-3.4 -23.5,-5.3 z M 457.5,565.4 c 6.6,0.4 13.2,1.7 19.6,3.2 60.4,13.4 121.6,21.1 183.3,21 51.7,-0.1 103.4,-4.3 155,-7.4 16.4,-1 33,-3 48.8,-7.1 21,-5.3 31.4,-21 31.8,-42.7 0.4,-19.4 -4.4,-37.8 -11.4,-55.4 -11.5,-28.8 -24.2,-57.1 -36.5,-85.6 -23.9,-55.1 -47.8,-110.3 -72,-165.3 -15.4,-35 -31.6,-70.1 -57.6,-98.6 -32,-35.1 -66.2,-68.2 -99.3,-102.3 -4.9,-5 -10.2,-5.4 -16.1,-2.6 -3.5,1.7 -7.1,3.5 -10.4,5.7 -12.3,8.2 -24.6,16.4 -36.6,25 -6.2,4.4 -11.8,9.6 -17.4,14.8 -4.1,3.8 -4.8,8.6 -0.9,13.2 6.6,7.6 12.8,15.6 20.1,22.5 13,12.2 29.8,12.9 45.2,2.8 -3.7,-16.4 -6.5,-17.5 -22.9,-10.5 -3.4,-3.8 -6.4,-7.1 -9.3,-10.4 7.8,1.4 10.2,-2.9 10.1,-10.1 0,-4 0.8,-8.1 1.2,-12 3.9,7 7.8,14 11.7,20.9 8,-6.2 14.3,-11.1 20.6,-16 0.5,0.5 1,1.1 1.5,1.6 -0.9,1.7 -1.6,3.4 -2.6,5 -8.1,13.2 -8.2,18 2.1,29.6 10.2,11.4 21.2,22 32,32.8 3,3 6.7,5.4 11.2,9 -9.5,4.1 -16.1,3.4 -21.7,-0.8 -6,-4.6 -11.6,-9.9 -16.8,-15.4 -10.4,-10.9 -13.5,-12.6 -27.1,-6.6 -12.7,5.7 -23.3,3.9 -35.6,-2.1 -10.7,-5.2 -23.5,-6.3 -35.5,-8.6 -2.2,-0.4 -6.9,1.8 -7.1,3.3 -0.4,2.9 0.8,6.8 2.7,9.1 1.8,2.3 5.3,3.6 8.3,4.4 5,1.4 10.1,2.3 15.2,3.1 22.9,3.7 45.2,9.3 66.3,19.4 18.2,8.8 37,14.5 57.9,9.7 9.8,-2.3 17.5,2.8 22.1,11.3 4.3,8 7.7,16.5 10.9,25 13.9,36.4 24,73.5 22.9,113 -0.7,24.6 -1.6,49.3 -0.9,73.9 0.9,33.1 3.7,66 18.1,96.7 0.5,1 0.5,2.2 1,4.2 -2.1,-0.8 -3.5,-1.1 -4.7,-1.7 -71.3,-33.8 -145.9,-57 -223.6,-69.9 -48.6,-8.1 -97.5,-10.6 -146.6,-3.8 -5.6,0.8 -7.2,2.8 -7.3,8.4 -1.1,34.8 9.4,66.6 24,97.4 10.9,22.8 24.9,43.5 41.7,63 11.2,-11.2 19.7,-14.9 34.6,-14.1 z"
   id="path3378" />
		<path
   class="st2"
   d="m 911.2,561.9 c 13.1,25.6 36.2,35.2 62.4,37.8 65.7,6.4 131.6,12.5 197.8,10.5 63.7,-1.9 126.7,-9.9 189,-23.7 12.8,-2.8 18.8,0.3 24.1,10 2.3,4.3 1.7,6.6 -1.7,10 -25.4,24.3 -53.3,45.3 -83.6,63.1 -59.3,35 -122.9,58.9 -189.8,74.7 -75.8,17.9 -152.8,24.3 -230.5,21.2 -74.3,-3 -147,-15.1 -217.7,-38.3 -55.6,-18.2 -108.7,-41.6 -156.5,-75.6 -21.8,-15.5 -41.4,-34.1 -61.8,-51.5 -5.1,-4.3 -3.9,-10.6 2.8,-12.5 5.5,-1.6 11.9,-2.3 17.3,-1 44.3,10.4 89.3,15.8 134.4,20.2 37.6,3.7 75.3,5.1 113,2.7 46.7,-3 93.4,-6.3 140.1,-10.3 19.3,-1.6 37,-8.5 50.5,-23.4 3.6,-3.9 6.5,-8.8 10.2,-13.9 z M 711.1,87.6 c 28.4,28 51.2,60.3 67.6,96.3 39,85.6 76.5,171.9 114.4,258 6.7,15.2 11.9,31 17.8,46.5 0.3,-0.2 0.9,-0.4 1,-0.8 10.5,-26.3 20.3,-52.8 31.5,-78.8 27.8,-64.7 56.1,-129.2 84.5,-193.7 17.3,-39.4 37.8,-77 66.2,-109.7 7.9,-9 16.3,-17.6 25.2,-27.4 C 980.4,45.4 843,45.8 704.1,80.1 c 3,3.2 4.9,5.4 7,7.5 z M 1473.5,385 c -4.2,-36 -16,-69.5 -34.7,-100.5 -34,-56.4 -81.9,-98.4 -137.7,-132.3 -1.5,-0.9 -3.8,-1.4 -5.5,-1.1 -25.1,3.8 -49.7,9.1 -73.1,19.8 -21,9.6 -42.5,17.4 -66.4,11.6 -1.6,-0.4 -4.8,2 -5.8,3.9 -3,5.9 -5.3,12.2 -7.7,18.4 -14.9,38.5 -24,77.6 -21.5,119.6 1.9,30.6 -0.6,61.5 -1.7,92.3 -0.4,10.6 -2.5,21.2 -3.8,32.1 1.5,-0.3 2.2,-0.3 2.9,-0.5 48.2,-19 97.6,-34.1 148.1,-45.7 47.5,-10.9 95.5,-17.8 144.2,-17.9 20.6,-0.1 41.2,1.9 62.6,3 0.1,-0.8 0.2,-1.8 0.1,-2.7 z m -767.6,60.8 c -7.3,-41.8 -8.1,-84 -5.4,-126.1 3,-47.3 -11.2,-90.5 -28.8,-133.1 -1.3,-3.3 -3,-5.1 -7.2,-4 -14.8,3.8 -29.4,1.7 -43.6,-3.2 -21.3,-7.4 -42.4,-15.8 -64,-22.5 -10.2,-3.2 -21.4,-8.1 -32,-1.5 -41.5,25.8 -78.8,56.7 -109.2,95.2 -30.2,38.3 -50.2,81.1 -57.2,129.7 -0.5,3.5 -0.4,7 -0.6,10.6 122.2,-15.8 235.6,14.9 347.9,57.5 0,-1.2 0.2,-1.9 0.1,-2.6 z"
   id="path3380" />
	</g>
	
</g>
</svg>
